<svg xmlns="http://www.w3.org/2000/svg" xmlns:xlink="http://www.w3.org/1999/xlink" width="1000" zoomAndPan="magnify" viewBox="0 0 750 749.999995" height="1000" preserveAspectRatio="xMidYMid meet" version="1.0"><defs><clipPath id="168976aad8"><path d="M 187.390625 187.390625 L 562.390625 187.390625 L 562.390625 562.390625 L 187.390625 562.390625 Z M 187.390625 187.390625 " clip-rule="nonzero"/></clipPath><clipPath id="9a1dbd2ad2"><path d="M 254 187.390625 L 562.390625 187.390625 L 562.390625 547 L 254 547 Z M 254 187.390625 " clip-rule="nonzero"/></clipPath><clipPath id="03bddfc450"><path d="M 312 312 L 562.390625 312 L 562.390625 562.390625 L 312 562.390625 Z M 312 312 " clip-rule="nonzero"/></clipPath><clipPath id="66c2c3c02e"><path d="M 288 288 L 562.390625 288 L 562.390625 562.390625 L 288 562.390625 Z M 288 288 " clip-rule="nonzero"/></clipPath><clipPath id="b55e04217a"><path d="M 0 0 L 656.25 0 L 656.25 340 L 0 340 Z M 0 0 " clip-rule="nonzero"/></clipPath></defs><g clip-path="url(#168976aad8)"><path stroke-linecap="butt" transform="matrix(5.151099, 0, 0, 5.151099, 187.38931, 187.389328)" fill="none" stroke-linejoin="miter" d="M 53.800216 27.400353 C 53.800216 27.831845 53.7896 28.264095 53.768366 28.695587 C 53.747133 29.127078 53.715283 29.557812 53.672816 29.987787 C 53.63035 30.417762 53.578025 30.84622 53.514325 31.27392 C 53.450625 31.700862 53.377066 32.126287 53.292891 32.550195 C 53.208716 32.974104 53.113925 33.395737 53.008516 33.814337 C 52.903866 34.233695 52.7886 34.65002 52.663475 35.063312 C 52.537591 35.476604 52.402608 35.886862 52.257008 36.294087 C 52.111408 36.700554 51.95595 37.103987 51.790633 37.502871 C 51.625316 37.901754 51.450141 38.296846 51.265108 38.687387 C 51.080833 39.077929 50.8867 39.463921 50.682708 39.844604 C 50.478716 40.226046 50.266383 40.601421 50.044191 40.972246 C 49.822 41.343071 49.590708 41.707829 49.351074 42.067279 C 49.110683 42.425971 48.861949 42.779354 48.604874 43.126671 C 48.347041 43.473229 48.081624 43.813721 47.807108 44.148146 C 47.533349 44.481813 47.251249 44.808654 46.960808 45.129429 C 46.671124 45.449446 46.373099 45.761879 46.067491 46.067488 C 45.761883 46.373096 45.449449 46.671121 45.129433 46.960804 C 44.808658 47.251246 44.481816 47.533346 44.148149 47.807104 C 43.813724 48.081621 43.473233 48.347038 43.126674 48.604871 C 42.779357 48.861946 42.425974 49.110679 42.067282 49.351071 C 41.707832 49.590704 41.343074 49.821996 40.972249 50.044188 C 40.601424 50.26638 40.226049 50.478713 39.844607 50.682705 C 39.463924 50.886696 39.077932 51.08083 38.687391 51.265105 C 38.296849 51.450138 37.901757 51.625313 37.502874 51.79063 C 37.103991 51.955946 36.700557 52.111405 36.29409 52.257005 C 35.886865 52.402605 35.476607 52.537588 35.063315 52.663471 C 34.650024 52.788596 34.233699 52.903863 33.81434 53.008513 C 33.39574 53.113921 32.974107 53.208713 32.550199 53.292888 C 32.12629 53.377063 31.700865 53.450621 31.273924 53.514321 C 30.846224 53.578021 30.417765 53.630346 29.98779 53.672813 C 29.557815 53.71528 29.127082 53.74713 28.69559 53.768363 C 28.264098 53.789596 27.831848 53.800213 27.400357 53.800213 C 26.968107 53.800213 26.535857 53.789596 26.104365 53.768363 C 25.672873 53.74713 25.24214 53.71528 24.812165 53.672813 C 24.38219 53.630346 23.953731 53.578021 23.526031 53.514321 C 23.09909 53.450621 22.673665 53.377063 22.249756 53.292888 C 21.825848 53.208713 21.404215 53.113921 20.985615 53.008513 C 20.566256 52.903863 20.149931 52.788596 19.73664 52.663471 C 19.323348 52.537588 18.91309 52.402605 18.505865 52.257005 C 18.099398 52.111405 17.695964 51.955946 17.297081 51.79063 C 16.898198 51.625313 16.503106 51.450138 16.112564 51.265105 C 15.722023 51.08083 15.336031 50.886696 14.955348 50.682705 C 14.573906 50.478713 14.198531 50.26638 13.827706 50.044188 C 13.456881 49.821996 13.092123 49.590704 12.732673 49.351071 C 12.373981 49.110679 12.020598 48.861946 11.673281 48.604871 C 11.326722 48.347038 10.986231 48.081621 10.651806 47.807104 C 10.318139 47.533346 9.991297 47.251246 9.670522 46.960804 C 9.350506 46.671121 9.038072 46.373096 8.732464 46.067488 C 8.426856 45.761879 8.128831 45.449446 7.839147 45.129429 C 7.548706 44.808654 7.266606 44.481813 6.992847 44.148146 C 6.718331 43.813721 6.452914 43.473229 6.195081 43.126671 C 5.938006 42.779354 5.689272 42.425971 5.448881 42.067279 C 5.209247 41.707829 4.977955 41.343071 4.755764 40.972246 C 4.533572 40.601421 4.321239 40.226046 4.117247 39.844604 C 3.913255 39.463921 3.719122 39.077929 3.534847 38.687387 C 3.349814 38.296846 3.174639 37.901754 3.009322 37.502871 C 2.844005 37.103987 2.688547 36.700554 2.542947 36.294087 C 2.397347 35.886862 2.262364 35.476604 2.13648 35.063312 C 2.011355 34.65002 1.896089 34.233695 1.791439 33.814337 C 1.68603 33.395737 1.591239 32.974104 1.507064 32.550195 C 1.422889 32.126287 1.34933 31.700862 1.28563 31.27392 C 1.222689 30.84622 1.169605 30.417762 1.127139 29.987787 C 1.084672 29.557812 1.052822 29.127078 1.031589 28.695587 C 1.010355 28.264095 0.999739 27.831845 0.999739 27.400353 C 0.999739 26.968103 1.010355 26.535853 1.031589 26.104362 C 1.052822 25.67287 1.084672 25.242137 1.127139 24.812161 C 1.169605 24.382186 1.222689 23.953728 1.28563 23.526028 C 1.34933 23.099086 1.422889 22.673661 1.507064 22.249753 C 1.591239 21.825845 1.68603 21.404211 1.791439 20.985611 C 1.896089 20.566253 2.011355 20.149928 2.13648 19.736636 C 2.262364 19.323345 2.397347 18.913086 2.542947 18.505861 C 2.688547 18.099394 2.844005 17.695961 3.009322 17.297078 C 3.174639 16.898194 3.349814 16.503103 3.534847 16.112561 C 3.719122 15.722019 3.913255 15.336028 4.117247 14.955344 C 4.321239 14.573903 4.533572 14.198528 4.755764 13.827703 C 4.977955 13.456878 5.209247 13.092119 5.448881 12.732669 C 5.689272 12.373978 5.938006 12.020594 6.195081 11.673277 C 6.452914 11.326719 6.718331 10.986227 6.992847 10.651802 C 7.266606 10.318136 7.548706 9.991294 7.839147 9.670519 C 8.128831 9.350502 8.426856 9.038069 8.732464 8.732461 C 9.038072 8.426852 9.350506 8.128827 9.670522 7.839144 C 9.991297 7.548702 10.318139 7.266602 10.651806 6.992844 C 10.986231 6.718327 11.326722 6.452911 11.673281 6.195077 C 12.020598 5.938002 12.373981 5.689269 12.732673 5.448877 C 13.092123 5.209244 13.456881 4.977952 13.827706 4.75576 C 14.198531 4.533569 14.573906 4.321235 14.955348 4.117244 C 15.336031 3.913252 15.722023 3.719119 16.112564 3.534844 C 16.503106 3.34981 16.898198 3.174635 17.297081 3.009319 C 17.695964 2.844002 18.099398 2.688544 18.505865 2.542944 C 18.91309 2.397344 19.323348 2.26236 19.73664 2.136477 C 20.149931 2.011352 20.566256 1.896085 20.985615 1.791435 C 21.404215 1.686027 21.825848 1.591235 22.249756 1.50706 C 22.673665 1.422885 23.09909 1.349327 23.526031 1.285627 C 23.953731 1.222685 24.38219 1.169602 24.812165 1.127135 C 25.24214 1.084669 25.672873 1.052819 26.104365 1.031585 C 26.535857 1.010352 26.968107 0.999735 27.400357 0.999735 C 27.831848 0.999735 28.264098 1.010352 28.69559 1.031585 C 29.127082 1.052819 29.557815 1.084669 29.98779 1.127135 C 30.417765 1.169602 30.846224 1.222685 31.273924 1.285627 C 31.700865 1.349327 32.12629 1.422885 32.550199 1.50706 C 32.974107 1.591235 33.39574 1.686027 33.81434 1.791435 C 34.233699 1.896085 34.650024 2.011352 35.063315 2.136477 C 35.476607 2.26236 35.886865 2.397344 36.29409 2.542944 C 36.700557 2.688544 37.103991 2.844002 37.502874 3.009319 C 37.901757 3.174635 38.296849 3.34981 38.687391 3.534844 C 39.077932 3.719119 39.463924 3.913252 39.844607 4.117244 C 40.226049 4.321235 40.601424 4.533569 40.972249 4.75576 C 41.343074 4.977952 41.707832 5.209244 42.067282 5.448877 C 42.425974 5.689269 42.779357 5.938002 43.126674 6.195077 C 43.473233 6.452911 43.813724 6.718327 44.148149 6.992844 C 44.481816 7.266602 44.808658 7.548702 45.129433 7.839144 C 45.449449 8.128827 45.761883 8.426852 46.067491 8.732461 C 46.373099 9.038069 46.671124 9.350502 46.960808 9.670519 C 47.251249 9.991294 47.533349 10.318136 47.807108 10.651802 C 48.081624 10.986227 48.347041 11.326719 48.604874 11.673277 C 48.861949 12.020594 49.110683 12.373978 49.351074 12.732669 C 49.590708 13.092119 49.822 13.456878 50.044191 13.827703 C 50.266383 14.198528 50.478716 14.573903 50.682708 14.955344 C 50.8867 15.336028 51.080833 15.722019 51.265108 16.112561 C 51.450141 16.503103 51.625316 16.898194 51.790633 17.297078 C 51.95595 17.695961 52.111408 18.099394 52.257008 18.505861 C 52.402608 18.913086 52.537591 19.323345 52.663475 19.736636 C 52.7886 20.149928 52.903866 20.566253 53.008516 20.985611 C 53.113925 21.404211 53.208716 21.825845 53.292891 22.249753 C 53.377066 22.673661 53.450625 23.099086 53.514325 23.526028 C 53.578025 23.953728 53.63035 24.382186 53.672816 24.812161 C 53.715283 25.242137 53.747133 25.67287 53.768366 26.104362 C 53.7896 26.535853 53.800216 26.968103 53.800216 27.400353 Z M 53.800216 27.400353 " stroke="#000000" stroke-width="2" stroke-opacity="1" stroke-miterlimit="10"/></g><g clip-path="url(#9a1dbd2ad2)"><path stroke-linecap="butt" transform="matrix(5.151099, 0, 0, 5.151099, 187.38931, 187.389328)" fill="none" stroke-linejoin="miter" d="M 41.399949 13.400003 C 49.100066 21.10012 49.100066 33.699829 41.399949 41.399946 " stroke="#000000" stroke-width="2" stroke-opacity="1" stroke-miterlimit="10"/></g><g clip-path="url(#03bddfc450)"><path stroke-linecap="butt" transform="matrix(5.151099, 0, 0, 5.151099, 187.38931, 187.389328)" fill="none" stroke-linejoin="miter" d="M 72.100317 72.100314 L 52.499675 52.499671 " stroke="#000000" stroke-width="2" stroke-opacity="1" stroke-miterlimit="10"/></g><g clip-path="url(#66c2c3c02e)"><path stroke-linecap="butt" transform="matrix(5.151099, 0, 0, 5.151099, 187.38931, 187.389328)" fill="none" stroke-linejoin="miter" d="M 47.899624 47.900379 L 50.39985 50.399846 " stroke="#000000" stroke-width="2" stroke-opacity="1" stroke-miterlimit="10"/></g><g clip-path="url(#b55e04217a)"><path fill="#ff1616" d="M 227.191406 228.109375 C 222.082031 225.691406 217.824219 222.125 213.816406 218.296875 C 200.457031 205.539062 187.28125 192.582031 173.863281 179.886719 C 151.007812 158.265625 128.476562 136.300781 104.917969 115.4375 C 98.265625 109.546875 92.378906 102.914062 86.410156 96.367188 C 84.808594 94.617188 82.328125 92.34375 84.585938 89.921875 C 86.820312 87.527344 89.4375 89.40625 91.601562 90.9375 C 92.714844 91.726562 93.769531 92.640625 94.714844 93.628906 C 117.113281 116.972656 141.804688 137.941406 164.390625 161.101562 C 183.390625 180.578125 202.960938 199.507812 220.972656 219.9375 C 223.226562 222.496094 225.625 224.945312 227.191406 228.109375 Z M 330.726562 165.675781 C 333.226562 144.199219 333.898438 122.640625 333.507812 101.035156 C 333.230469 85.578125 331.875 70.144531 333.167969 54.65625 C 334.773438 35.394531 336.285156 16.109375 335.832031 -3.253906 C 335.753906 -6.621094 335.863281 -10.019531 334.980469 -13.300781 C 334.363281 -15.605469 334.335938 -18.992188 331.078125 -18.816406 C 327.726562 -18.636719 328.132812 -15.28125 327.96875 -12.910156 C 327.230469 -2.199219 327.65625 8.507812 327.824219 19.234375 C 328.105469 37.308594 327.207031 55.402344 326.878906 73.488281 C 326.28125 106.292969 325.582031 139.097656 328.160156 171.863281 C 328.277344 173.359375 328.460938 174.832031 329.535156 176.933594 C 330.773438 172.824219 330.316406 169.195312 330.726562 165.675781 Z M 522.742188 325.871094 C 507.554688 324.832031 492.257812 324.640625 477.074219 325.730469 C 475.21875 325.863281 473.363281 326.128906 471.53125 326.457031 C 470.722656 326.605469 469.652344 326.851562 469.808594 328.011719 C 469.929688 328.894531 470.847656 329.007812 471.582031 329.082031 C 473.195312 329.25 474.8125 329.433594 476.429688 329.460938 C 482.542969 329.574219 488.671875 329.371094 494.769531 329.75 C 509.21875 330.648438 523.636719 332.035156 538.09375 332.8125 C 562.519531 334.121094 586.957031 335.359375 611.40625 336.136719 C 624.472656 336.554688 637.585938 337.996094 650.65625 336.003906 C 653.011719 335.644531 656.386719 336.105469 656.164062 332.507812 C 655.96875 329.375 652.816406 329.265625 650.367188 328.925781 C 649.140625 328.757812 647.875 328.886719 646.625 328.902344 C 643.257812 328.949219 639.890625 329.105469 636.523438 329.050781 C 611.8125 328.648438 587.144531 326.972656 562.421875 326.941406 C 545.476562 327.144531 531.980469 326.5 522.742188 325.871094 Z M 189.308594 333.332031 C 188.738281 333.15625 188.171875 332.859375 187.589844 332.824219 C 178.003906 332.238281 168.417969 331.445312 158.820312 331.171875 C 136.972656 330.554688 115.140625 331.992188 93.292969 331.855469 C 76.6875 331.753906 60.078125 332.082031 43.484375 331.660156 C 32.007812 331.367188 20.542969 330.710938 9.058594 331.074219 C 6.667969 331.148438 4.332031 331.5 2.148438 332.527344 C 0.945312 333.09375 0.0429688 333.972656 0.140625 335.398438 C 0.230469 336.675781 1.207031 337.332031 2.300781 337.734375 C 4.308594 338.480469 6.398438 338.796875 8.539062 338.828125 C 21.269531 339.007812 34.011719 339.636719 46.726562 339.300781 C 89.644531 338.160156 132.601562 338.621094 175.46875 335.808594 C 180.144531 335.5 184.792969 334.808594 189.453125 334.296875 C 189.40625 333.976562 189.355469 333.652344 189.308594 333.332031 Z M 470.40625 276.195312 C 480.492188 273.300781 490.125 269.085938 500.058594 265.804688 C 535.925781 253.957031 570.332031 238.652344 604.476562 222.679688 C 605.828125 222.050781 607.144531 221.320312 608.40625 220.527344 C 609.410156 219.894531 610.082031 218.917969 609.769531 217.679688 C 609.460938 216.464844 608.441406 215.914062 607.257812 215.742188 C 604.355469 215.320312 601.507812 215.632812 598.808594 216.773438 C 594.445312 218.617188 590.019531 220.359375 585.789062 222.484375 C 566.265625 232.292969 546.539062 241.675781 526.09375 249.394531 C 507.757812 256.316406 489.40625 263.140625 472.195312 272.636719 C 470.375 273.640625 468.414062 274.449219 466.632812 277.257812 C 468.550781 276.71875 469.480469 276.460938 470.40625 276.195312 Z M 437.503906 225.382812 C 450.683594 212.984375 463.875 200.597656 477.003906 188.140625 C 497.652344 168.550781 518.476562 149.160156 540.683594 131.304688 C 548.949219 124.65625 556.882812 117.585938 564.097656 109.773438 C 565.863281 107.859375 568.792969 105.488281 566.058594 102.796875 C 563.277344 100.058594 561.046875 103.125 559.183594 104.9375 C 545.03125 118.6875 530.296875 131.828125 515.351562 144.667969 C 487.53125 168.566406 463.234375 195.929688 437.507812 221.894531 C 436.191406 223.222656 434.550781 224.5 434.449219 226.707031 C 436.082031 227.179688 436.742188 226.101562 437.503906 225.382812 Z M 212.585938 234.820312 C 208.144531 231.1875 203.71875 227.53125 199.199219 224 C 183.460938 211.703125 166.902344 200.546875 150.566406 189.074219 C 130.867188 175.238281 112.648438 159.382812 92.492188 146.152344 C 90.722656 144.988281 89.109375 143.539062 86.964844 143.109375 C 85.597656 142.832031 84.152344 142.738281 83.308594 144.199219 C 82.585938 145.441406 83.023438 146.628906 83.835938 147.664062 C 84.527344 148.542969 85.28125 149.382812 86.054688 150.191406 C 91.898438 156.320312 99.015625 160.773438 106.269531 164.898438 C 128.90625 177.777344 149.785156 193.121094 169.980469 209.46875 C 182.511719 219.609375 195.644531 228.890625 209.871094 236.53125 C 211.300781 237.296875 212.71875 238.660156 214.75 237.753906 C 214.601562 236.296875 213.515625 235.582031 212.585938 234.820312 Z M 344.992188 181.472656 C 346.402344 175.207031 348.003906 168.976562 349.1875 162.664062 C 351.742188 149.027344 352.066406 135.144531 353.472656 121.378906 C 355.144531 104.992188 358.757812 88.890625 361.53125 72.664062 C 363.929688 58.648438 367.597656 44.875 369.273438 30.730469 C 369.519531 28.660156 369.992188 26.128906 367.195312 25.4375 C 364.410156 24.742188 363.601562 27.207031 362.851562 29.136719 C 360.671875 34.753906 359.558594 40.65625 358.773438 46.589844 C 354.027344 82.3125 349.285156 118.035156 344.734375 153.785156 C 343.574219 162.90625 342.964844 172.117188 343.9375 181.316406 C 344.289062 181.367188 344.640625 181.421875 344.992188 181.472656 Z M 432.582031 208.195312 C 454.199219 180.269531 477.914062 154.0625 499.71875 126.292969 C 505.191406 119.324219 510.832031 112.492188 516.308594 105.535156 C 517.855469 103.566406 519.636719 101.132812 517.046875 98.953125 C 514.445312 96.765625 512.421875 99.050781 510.675781 100.816406 C 508.921875 102.585938 507.234375 104.445312 505.71875 106.417969 C 492.644531 123.429688 479.710938 140.550781 466.546875 157.496094 C 452.238281 175.910156 437.375 193.910156 425.042969 213.78125 C 424.089844 215.324219 422.875 216.738281 423.4375 219.125 C 426.492188 215.488281 429.675781 211.949219 432.582031 208.195312 Z M 311.296875 182.074219 C 308.691406 162.644531 307.996094 143.0625 306.585938 123.539062 C 304.449219 94.050781 302.300781 64.566406 298.757812 35.207031 C 298.132812 30.039062 298.238281 24.699219 296.242188 19.75 C 295.621094 18.199219 294.648438 16.769531 292.65625 17.082031 C 290.574219 17.414062 290.273438 19.152344 290.328125 20.808594 C 290.476562 25.042969 290.460938 29.316406 291.066406 33.496094 C 293.839844 52.628906 296.527344 71.769531 298.804688 90.976562 C 301.984375 117.847656 302.746094 144.96875 307.058594 171.71875 C 307.699219 175.691406 308.253906 179.746094 310.777344 184.171875 C 311.136719 182.765625 311.34375 182.402344 311.296875 182.074219 Z M 196.082031 278.804688 C 196.421875 277.6875 195.34375 277.332031 194.597656 276.996094 C 191.417969 275.554688 188.226562 274.132812 185.003906 272.796875 C 171.402344 267.152344 156.976562 263.792969 143.546875 257.652344 C 127.996094 250.542969 111.945312 244.632812 96.1875 238.019531 C 84.796875 233.242188 72.648438 230.480469 61.609375 224.78125 C 59.992188 223.945312 58.050781 223.597656 56.214844 223.359375 C 54 223.074219 51.726562 223.464844 51.132812 226.050781 C 50.570312 228.519531 52.53125 229.433594 54.421875 230.351562 C 67.492188 236.699219 81.421875 240.652344 95.183594 245.089844 C 119.878906 253.058594 144.1875 262.109375 168.4375 271.316406 C 176.839844 274.507812 185.378906 277.257812 193.90625 279.378906 C 194.820312 279.265625 195.796875 279.726562 196.082031 278.804688 Z M 255.886719 149.886719 C 251.164062 140.914062 247.351562 131.601562 244.113281 122.015625 C 236.769531 100.265625 227.949219 79.089844 219.003906 57.964844 C 217.832031 55.207031 216.421875 52.554688 214.496094 50.234375 C 213.675781 49.238281 212.550781 48.613281 211.183594 49.210938 C 209.816406 49.804688 209.566406 51.007812 209.667969 52.332031 C 209.835938 54.601562 210.714844 56.675781 211.484375 58.785156 C 217.675781 75.800781 225.421875 92.15625 232.992188 108.5625 C 243.957031 132.316406 251.59375 157.53125 264.621094 180.371094 C 266.445312 183.570312 267.746094 187.101562 270.714844 189.621094 C 266.207031 176.195312 262.511719 162.476562 255.886719 149.886719 Z M 235.867188 209.101562 C 218.445312 189.855469 201.785156 169.957031 185.660156 149.621094 C 173.800781 134.667969 162.496094 119.277344 150.664062 104.296875 C 145.808594 98.152344 140.773438 92.078125 134.933594 86.777344 C 133.53125 85.503906 131.765625 84.199219 129.929688 85.640625 C 127.933594 87.210938 128.761719 89.417969 129.898438 91.0625 C 132.304688 94.542969 134.746094 98.054688 137.589844 101.175781 C 159.1875 124.890625 179.382812 149.808594 200.25 174.148438 C 210.71875 186.355469 221.972656 197.894531 232.921875 209.683594 C 234.21875 211.078125 235.503906 212.722656 238.066406 212.878906 C 237.996094 210.890625 236.761719 210.09375 235.867188 209.101562 Z M 543.109375 301.554688 C 524.582031 304.066406 506.210938 307.707031 487.484375 308.722656 C 482.132812 309.011719 476.851562 310.09375 471.707031 311.691406 C 470.6875 312.007812 469.140625 312.203125 469.351562 313.585938 C 469.511719 314.636719 470.945312 314.542969 471.925781 314.539062 C 474.042969 314.53125 476.175781 314.605469 478.273438 314.382812 C 491.789062 312.953125 505.160156 310.503906 518.714844 309.273438 C 548.644531 306.558594 578.632812 304.773438 608.605469 302.714844 C 610.839844 302.5625 613.085938 302.316406 615.285156 301.902344 C 616.972656 301.585938 619.015625 301.210938 618.957031 298.910156 C 618.894531 296.445312 616.773438 296.09375 614.90625 295.902344 C 611.433594 295.546875 607.941406 295.375 604.460938 295.128906 C 583.890625 296.203125 563.484375 298.789062 543.109375 301.554688 Z M 387.027344 190.304688 C 392.851562 178.714844 399.054688 167.328125 404.339844 155.457031 C 411.484375 139.398438 417.703125 122.886719 427.046875 107.867188 C 433.648438 97.246094 438.96875 85.945312 444.335938 74.679688 C 446.207031 70.746094 447.730469 66.636719 449.308594 62.566406 C 449.910156 61.019531 450.136719 59.320312 448.4375 58.199219 C 446.886719 57.171875 445.589844 58.042969 444.371094 58.992188 C 442.351562 60.570312 441.097656 62.6875 439.980469 64.960938 C 433.691406 77.726562 427.988281 90.75 422.476562 103.863281 C 417.542969 115.609375 410.949219 126.535156 405.777344 138.1875 C 398.433594 154.734375 392.683594 171.886719 385.773438 188.59375 C 385.3125 189.707031 384.726562 190.867188 385.332031 192.148438 C 386.429688 192.003906 386.660156 191.039062 387.027344 190.304688 Z M 186.839844 310.25 C 177.757812 309.667969 168.675781 309.023438 159.585938 308.558594 C 151.742188 308.15625 143.847656 308.371094 136.042969 307.613281 C 105.761719 304.667969 75.535156 301.136719 45.105469 299.960938 C 40.480469 299.78125 35.875 299.886719 31.316406 300.734375 C 29.953125 300.988281 28.558594 301.53125 28.417969 303.210938 C 28.277344 304.84375 29.480469 305.667969 30.761719 306.253906 C 32.367188 306.988281 34.097656 307.214844 35.863281 307.261719 C 50.699219 307.675781 65.535156 308.128906 80.371094 308.535156 C 103.3125 309.164062 126.238281 310.136719 149.140625 311.664062 C 160.582031 312.425781 171.976562 314.058594 183.484375 313.503906 C 185.796875 313.390625 188.222656 313.644531 190.578125 311.683594 C 189.253906 310.605469 188.070312 310.332031 186.839844 310.25 Z M 457.632812 257.121094 C 465.046875 254.109375 472.148438 250.472656 479.082031 246.488281 C 496.398438 236.542969 513.683594 226.574219 532.148438 218.796875 C 544.015625 213.796875 554.753906 206.578125 566.136719 200.613281 C 568.199219 199.535156 571.371094 198.171875 569.832031 195.097656 C 568.367188 192.175781 565.351562 193.667969 563.132812 194.515625 C 559.527344 195.890625 556 197.511719 552.566406 199.28125 C 526.148438 212.890625 500.648438 228.128906 475.023438 243.140625 C 469 246.671875 463.097656 250.417969 457.21875 254.191406 C 455.871094 255.058594 454.210938 255.941406 453.9375 258.484375 C 455.40625 257.945312 456.535156 257.570312 457.632812 257.121094 Z M 280.902344 160.746094 C 276.261719 141.480469 271.566406 122.222656 266.644531 103.027344 C 262.929688 88.535156 260.496094 73.738281 256.183594 59.394531 C 255.574219 57.363281 255.042969 55.292969 253.726562 53.570312 C 252.914062 52.511719 251.863281 51.84375 250.484375 52.296875 C 249.007812 52.78125 248.835938 54.074219 248.960938 55.355469 C 249.175781 57.585938 249.375 59.835938 249.808594 62.03125 C 253.300781 79.65625 258.300781 96.898438 263.03125 114.214844 C 269.269531 137.046875 275.363281 159.914062 283.253906 182.25 C 283.984375 184.328125 284.601562 186.511719 286.863281 187.984375 C 284.285156 179.039062 283.082031 169.785156 280.902344 160.746094 Z M 408.882812 198.417969 C 413.851562 190.207031 418.335938 181.679688 423.652344 173.707031 C 436.109375 155.03125 449.003906 136.648438 461.601562 118.070312 C 467.136719 109.914062 472.121094 101.417969 475.890625 92.273438 C 476.503906 90.78125 477.15625 88.980469 475.359375 87.894531 C 473.429688 86.722656 472.078125 88.136719 470.925781 89.511719 C 467.476562 93.640625 464.476562 98.074219 461.933594 102.820312 C 455.449219 114.925781 447.941406 126.425781 440.589844 137.988281 C 429.476562 155.46875 419.363281 173.542969 408.253906 191.011719 C 405.75 194.949219 404.484375 199.316406 404.488281 204.269531 C 405.960938 202.324219 407.625 200.496094 408.882812 198.417969 Z M 447.984375 241.171875 C 456.324219 235.027344 464.84375 229.105469 472.9375 222.648438 C 494.714844 205.277344 516.625 188.128906 540.546875 173.71875 C 547.601562 169.46875 554.398438 164.761719 560.558594 159.257812 C 562.460938 157.5625 565.8125 155.582031 563.4375 152.574219 C 561.023438 149.527344 558.449219 152.394531 556.347656 153.910156 C 546.53125 161 536.886719 168.332031 527.007812 175.335938 C 499.578125 194.773438 473.214844 215.546875 448.152344 237.960938 C 446.882812 239.097656 445.375 240.117188 445.027344 242.328125 C 446.457031 242.4375 447.214844 241.738281 447.984375 241.171875 Z M 368.492188 181.167969 C 370.214844 175.179688 371.636719 169.089844 373.667969 163.207031 C 384.851562 130.769531 395.761719 98.25 404.867188 65.152344 C 405.363281 63.355469 405.898438 61.539062 406.109375 59.695312 C 406.300781 58.03125 406.804688 55.789062 404.71875 55.113281 C 402.53125 54.402344 401.824219 56.617188 401.074219 58.109375 C 397.980469 64.257812 395.394531 70.636719 393.566406 77.253906 C 385.257812 107.304688 376.984375 137.367188 368.96875 167.496094 C 367.484375 173.082031 365.9375 178.824219 367.28125 184.945312 C 367.6875 183.6875 368.128906 182.4375 368.492188 181.167969 Z M 478.820312 293.332031 C 492 290.546875 505.070312 287.128906 518.339844 284.90625 C 538.273438 281.566406 558.253906 278.574219 577.894531 273.6875 C 582.28125 272.59375 586.511719 271.179688 590.578125 269.234375 C 591.746094 268.679688 592.949219 268.0625 592.710938 266.539062 C 592.4375 264.820312 590.957031 264.613281 589.558594 264.511719 C 588.820312 264.457031 588.050781 264.488281 587.324219 264.628906 C 580.710938 265.898438 574.0625 267.03125 567.496094 268.53125 C 547.433594 273.121094 527.394531 277.835938 507.359375 282.542969 C 497.285156 284.914062 487.21875 287.320312 477.175781 289.824219 C 474.589844 290.46875 471.9375 291.238281 470.398438 294.417969 C 473.210938 294.066406 476.0625 293.914062 478.820312 293.332031 Z M 178.144531 86.785156 C 178.339844 88.445312 179.304688 89.792969 180.0625 91.222656 C 185.804688 102.082031 193.46875 111.671875 200.246094 121.847656 C 214.847656 143.773438 229.003906 165.996094 244.285156 187.464844 C 247.105469 191.433594 249.988281 195.359375 252.933594 199.234375 C 253.628906 200.148438 254.769531 201.566406 255.929688 200.441406 C 256.863281 199.535156 255.40625 198.503906 254.800781 197.640625 C 240.910156 177.789062 227.585938 157.550781 215.480469 136.578125 C 206.492188 121.003906 197.117188 105.675781 187.789062 90.316406 C 186.636719 88.414062 185.074219 86.75 183.632812 85.035156 C 182.898438 84.15625 181.898438 83.617188 180.722656 83.488281 C 178.933594 83.453125 177.90625 84.726562 178.144531 86.785156 Z M 190.234375 292.230469 C 190.382812 289.925781 187.332031 290.929688 185.792969 290.179688 C 185.367188 289.96875 184.804688 290.058594 184.320312 289.953125 C 164.933594 285.734375 145.378906 282.351562 125.929688 278.46875 C 105.496094 274.394531 85.253906 269.382812 64.914062 264.851562 C 61.511719 264.09375 58.070312 263.355469 54.535156 263.597656 C 53.265625 263.683594 51.941406 263.882812 51.582031 265.386719 C 51.226562 266.871094 52.289062 267.695312 53.355469 268.382812 C 55.921875 270.03125 58.847656 270.71875 61.773438 271.375 C 74.839844 274.300781 88.210938 275.105469 101.414062 277.050781 C 118.457031 279.5625 135.148438 283.914062 151.992188 287.472656 C 163.101562 289.820312 174.277344 291.800781 185.101562 293.34375 C 187.203125 292.90625 190.136719 293.746094 190.234375 292.230469 Z M 198.71875 258.113281 C 183.019531 250.175781 166.945312 242.894531 151.675781 234.203125 C 132.042969 223.035156 111.675781 213.167969 92.558594 201.082031 C 91.40625 200.351562 90.167969 199.683594 88.882812 199.242188 C 86.535156 198.433594 83.570312 196.269531 81.964844 199.546875 C 80.476562 202.585938 83.828125 203.6875 85.808594 204.984375 C 98.167969 213.078125 111.199219 219.875 124.960938 225.296875 C 143.9375 232.777344 161.242188 243.660156 179.628906 252.351562 C 186.820312 255.75 194.253906 258.519531 202.800781 261.238281 C 201.359375 258.917969 199.902344 258.710938 198.71875 258.113281 Z M 198.71875 258.113281 " fill-opacity="1" fill-rule="nonzero"/><path fill="#ff1616" d="M 227.191406 228.109375 C 222.082031 225.691406 217.824219 222.125 213.816406 218.296875 C 200.457031 205.539062 187.28125 192.582031 173.863281 179.886719 C 151.007812 158.265625 128.476562 136.300781 104.917969 115.4375 C 98.265625 109.546875 92.378906 102.914062 86.410156 96.367188 C 84.808594 94.617188 82.328125 92.34375 84.585938 89.921875 C 86.820312 87.527344 89.4375 89.40625 91.601562 90.9375 C 92.714844 91.726562 93.769531 92.640625 94.714844 93.628906 C 117.113281 116.972656 141.804688 137.941406 164.390625 161.101562 C 183.390625 180.578125 202.960938 199.507812 220.972656 219.9375 C 223.226562 222.496094 225.625 224.945312 227.191406 228.109375 Z M 330.726562 165.675781 C 333.226562 144.199219 333.898438 122.640625 333.507812 101.035156 C 333.230469 85.578125 331.875 70.144531 333.167969 54.65625 C 334.773438 35.394531 336.285156 16.109375 335.832031 -3.253906 C 335.753906 -6.621094 335.863281 -10.019531 334.980469 -13.300781 C 334.363281 -15.605469 334.335938 -18.992188 331.078125 -18.816406 C 327.726562 -18.636719 328.132812 -15.28125 327.96875 -12.910156 C 327.230469 -2.199219 327.65625 8.507812 327.824219 19.234375 C 328.105469 37.308594 327.207031 55.402344 326.878906 73.488281 C 326.28125 106.292969 325.582031 139.097656 328.160156 171.863281 C 328.277344 173.359375 328.460938 174.832031 329.535156 176.933594 C 330.773438 172.824219 330.316406 169.195312 330.726562 165.675781 Z M 522.742188 325.871094 C 507.554688 324.832031 492.257812 324.640625 477.074219 325.730469 C 475.21875 325.863281 473.363281 326.128906 471.53125 326.457031 C 470.722656 326.605469 469.652344 326.851562 469.808594 328.011719 C 469.929688 328.894531 470.847656 329.007812 471.582031 329.082031 C 473.195312 329.25 474.8125 329.433594 476.429688 329.460938 C 482.542969 329.574219 488.671875 329.371094 494.769531 329.75 C 509.21875 330.648438 523.636719 332.035156 538.09375 332.8125 C 562.519531 334.121094 586.957031 335.359375 611.40625 336.136719 C 624.472656 336.554688 637.585938 337.996094 650.65625 336.003906 C 653.011719 335.644531 656.386719 336.105469 656.164062 332.507812 C 655.96875 329.375 652.816406 329.265625 650.367188 328.925781 C 649.140625 328.757812 647.875 328.886719 646.625 328.902344 C 643.257812 328.949219 639.890625 329.105469 636.523438 329.050781 C 611.8125 328.648438 587.144531 326.972656 562.421875 326.941406 C 545.476562 327.144531 531.980469 326.5 522.742188 325.871094 Z M 189.308594 333.332031 C 188.738281 333.15625 188.171875 332.859375 187.589844 332.824219 C 178.003906 332.238281 168.417969 331.445312 158.820312 331.171875 C 136.972656 330.554688 115.140625 331.992188 93.292969 331.855469 C 76.6875 331.753906 60.078125 332.082031 43.484375 331.660156 C 32.007812 331.367188 20.542969 330.710938 9.058594 331.074219 C 6.667969 331.148438 4.332031 331.5 2.148438 332.527344 C 0.945312 333.09375 0.0429688 333.972656 0.140625 335.398438 C 0.230469 336.675781 1.207031 337.332031 2.300781 337.734375 C 4.308594 338.480469 6.398438 338.796875 8.539062 338.828125 C 21.269531 339.007812 34.011719 339.636719 46.726562 339.300781 C 89.644531 338.160156 132.601562 338.621094 175.46875 335.808594 C 180.144531 335.5 184.792969 334.808594 189.453125 334.296875 C 189.40625 333.976562 189.355469 333.652344 189.308594 333.332031 Z M 470.40625 276.195312 C 480.492188 273.300781 490.125 269.085938 500.058594 265.804688 C 535.925781 253.957031 570.332031 238.652344 604.476562 222.679688 C 605.828125 222.050781 607.144531 221.320312 608.40625 220.527344 C 609.410156 219.894531 610.082031 218.917969 609.769531 217.679688 C 609.460938 216.464844 608.441406 215.914062 607.257812 215.742188 C 604.355469 215.320312 601.507812 215.632812 598.808594 216.773438 C 594.445312 218.617188 590.019531 220.359375 585.789062 222.484375 C 566.265625 232.292969 546.539062 241.675781 526.09375 249.394531 C 507.757812 256.316406 489.40625 263.140625 472.195312 272.636719 C 470.375 273.640625 468.414062 274.449219 466.632812 277.257812 C 468.550781 276.71875 469.480469 276.460938 470.40625 276.195312 Z M 437.503906 225.382812 C 450.683594 212.984375 463.875 200.597656 477.003906 188.140625 C 497.652344 168.550781 518.476562 149.160156 540.683594 131.304688 C 548.949219 124.65625 556.882812 117.585938 564.097656 109.773438 C 565.863281 107.859375 568.792969 105.488281 566.058594 102.796875 C 563.277344 100.058594 561.046875 103.125 559.183594 104.9375 C 545.03125 118.6875 530.296875 131.828125 515.351562 144.667969 C 487.53125 168.566406 463.234375 195.929688 437.507812 221.894531 C 436.191406 223.222656 434.550781 224.5 434.449219 226.707031 C 436.082031 227.179688 436.742188 226.101562 437.503906 225.382812 Z M 212.585938 234.820312 C 208.144531 231.1875 203.71875 227.53125 199.199219 224 C 183.460938 211.703125 166.902344 200.546875 150.566406 189.074219 C 130.867188 175.238281 112.648438 159.382812 92.492188 146.152344 C 90.722656 144.988281 89.109375 143.539062 86.964844 143.109375 C 85.597656 142.832031 84.152344 142.738281 83.308594 144.199219 C 82.585938 145.441406 83.023438 146.628906 83.835938 147.664062 C 84.527344 148.542969 85.28125 149.382812 86.054688 150.191406 C 91.898438 156.320312 99.015625 160.773438 106.269531 164.898438 C 128.90625 177.777344 149.785156 193.121094 169.980469 209.46875 C 182.511719 219.609375 195.644531 228.890625 209.871094 236.53125 C 211.300781 237.296875 212.71875 238.660156 214.75 237.753906 C 214.601562 236.296875 213.515625 235.582031 212.585938 234.820312 Z M 344.992188 181.472656 C 346.402344 175.207031 348.003906 168.976562 349.1875 162.664062 C 351.742188 149.027344 352.066406 135.144531 353.472656 121.378906 C 355.144531 104.992188 358.757812 88.890625 361.53125 72.664062 C 363.929688 58.648438 367.597656 44.875 369.273438 30.730469 C 369.519531 28.660156 369.992188 26.128906 367.195312 25.4375 C 364.410156 24.742188 363.601562 27.207031 362.851562 29.136719 C 360.671875 34.753906 359.558594 40.65625 358.773438 46.589844 C 354.027344 82.3125 349.285156 118.035156 344.734375 153.785156 C 343.574219 162.90625 342.964844 172.117188 343.9375 181.316406 C 344.289062 181.367188 344.640625 181.421875 344.992188 181.472656 Z M 432.582031 208.195312 C 454.199219 180.269531 477.914062 154.0625 499.71875 126.292969 C 505.191406 119.324219 510.832031 112.492188 516.308594 105.535156 C 517.855469 103.566406 519.636719 101.132812 517.046875 98.953125 C 514.445312 96.765625 512.421875 99.050781 510.675781 100.816406 C 508.921875 102.585938 507.234375 104.445312 505.71875 106.417969 C 492.644531 123.429688 479.710938 140.550781 466.546875 157.496094 C 452.238281 175.910156 437.375 193.910156 425.042969 213.78125 C 424.089844 215.324219 422.875 216.738281 423.4375 219.125 C 426.492188 215.488281 429.675781 211.949219 432.582031 208.195312 Z M 311.296875 182.074219 C 308.691406 162.644531 307.996094 143.0625 306.585938 123.539062 C 304.449219 94.050781 302.300781 64.566406 298.757812 35.207031 C 298.132812 30.039062 298.238281 24.699219 296.242188 19.75 C 295.621094 18.199219 294.648438 16.769531 292.65625 17.082031 C 290.574219 17.414062 290.273438 19.152344 290.328125 20.808594 C 290.476562 25.042969 290.460938 29.316406 291.066406 33.496094 C 293.839844 52.628906 296.527344 71.769531 298.804688 90.976562 C 301.984375 117.847656 302.746094 144.96875 307.058594 171.71875 C 307.699219 175.691406 308.253906 179.746094 310.777344 184.171875 C 311.136719 182.765625 311.34375 182.402344 311.296875 182.074219 Z M 196.082031 278.804688 C 196.421875 277.6875 195.34375 277.332031 194.597656 276.996094 C 191.417969 275.554688 188.226562 274.132812 185.003906 272.796875 C 171.402344 267.152344 156.976562 263.792969 143.546875 257.652344 C 127.996094 250.542969 111.945312 244.632812 96.1875 238.019531 C 84.796875 233.242188 72.648438 230.480469 61.609375 224.78125 C 59.992188 223.945312 58.050781 223.597656 56.214844 223.359375 C 54 223.074219 51.726562 223.464844 51.132812 226.050781 C 50.570312 228.519531 52.53125 229.433594 54.421875 230.351562 C 67.492188 236.699219 81.421875 240.652344 95.183594 245.089844 C 119.878906 253.058594 144.1875 262.109375 168.4375 271.316406 C 176.839844 274.507812 185.378906 277.257812 193.90625 279.378906 C 194.820312 279.265625 195.796875 279.726562 196.082031 278.804688 Z M 255.886719 149.886719 C 251.164062 140.914062 247.351562 131.601562 244.113281 122.015625 C 236.769531 100.265625 227.949219 79.089844 219.003906 57.964844 C 217.832031 55.207031 216.421875 52.554688 214.496094 50.234375 C 213.675781 49.238281 212.550781 48.613281 211.183594 49.210938 C 209.816406 49.804688 209.566406 51.007812 209.667969 52.332031 C 209.835938 54.601562 210.714844 56.675781 211.484375 58.785156 C 217.675781 75.800781 225.421875 92.15625 232.992188 108.5625 C 243.957031 132.316406 251.59375 157.53125 264.621094 180.371094 C 266.445312 183.570312 267.746094 187.101562 270.714844 189.621094 C 266.207031 176.195312 262.511719 162.476562 255.886719 149.886719 Z M 235.867188 209.101562 C 218.445312 189.855469 201.785156 169.957031 185.660156 149.621094 C 173.800781 134.667969 162.496094 119.277344 150.664062 104.296875 C 145.808594 98.152344 140.773438 92.078125 134.933594 86.777344 C 133.53125 85.503906 131.765625 84.199219 129.929688 85.640625 C 127.933594 87.210938 128.761719 89.417969 129.898438 91.0625 C 132.304688 94.542969 134.746094 98.054688 137.589844 101.175781 C 159.1875 124.890625 179.382812 149.808594 200.25 174.148438 C 210.71875 186.355469 221.972656 197.894531 232.921875 209.683594 C 234.21875 211.078125 235.503906 212.722656 238.066406 212.878906 C 237.996094 210.890625 236.761719 210.09375 235.867188 209.101562 Z M 543.109375 301.554688 C 524.582031 304.066406 506.210938 307.707031 487.484375 308.722656 C 482.132812 309.011719 476.851562 310.09375 471.707031 311.691406 C 470.6875 312.007812 469.140625 312.203125 469.351562 313.585938 C 469.511719 314.636719 470.945312 314.542969 471.925781 314.539062 C 474.042969 314.53125 476.175781 314.605469 478.273438 314.382812 C 491.789062 312.953125 505.160156 310.503906 518.714844 309.273438 C 548.644531 306.558594 578.632812 304.773438 608.605469 302.714844 C 610.839844 302.5625 613.085938 302.316406 615.285156 301.902344 C 616.972656 301.585938 619.015625 301.210938 618.957031 298.910156 C 618.894531 296.445312 616.773438 296.09375 614.90625 295.902344 C 611.433594 295.546875 607.941406 295.375 604.460938 295.128906 C 583.890625 296.203125 563.484375 298.789062 543.109375 301.554688 Z M 387.027344 190.304688 C 392.851562 178.714844 399.054688 167.328125 404.339844 155.457031 C 411.484375 139.398438 417.703125 122.886719 427.046875 107.867188 C 433.648438 97.246094 438.96875 85.945312 444.335938 74.679688 C 446.207031 70.746094 447.730469 66.636719 449.308594 62.566406 C 449.910156 61.019531 450.136719 59.320312 448.4375 58.199219 C 446.886719 57.171875 445.589844 58.042969 444.371094 58.992188 C 442.351562 60.570312 441.097656 62.6875 439.980469 64.960938 C 433.691406 77.726562 427.988281 90.75 422.476562 103.863281 C 417.542969 115.609375 410.949219 126.535156 405.777344 138.1875 C 398.433594 154.734375 392.683594 171.886719 385.773438 188.59375 C 385.3125 189.707031 384.726562 190.867188 385.332031 192.148438 C 386.429688 192.003906 386.660156 191.039062 387.027344 190.304688 Z M 186.839844 310.25 C 177.757812 309.667969 168.675781 309.023438 159.585938 308.558594 C 151.742188 308.15625 143.847656 308.371094 136.042969 307.613281 C 105.761719 304.667969 75.535156 301.136719 45.105469 299.960938 C 40.480469 299.78125 35.875 299.886719 31.316406 300.734375 C 29.953125 300.988281 28.558594 301.53125 28.417969 303.210938 C 28.277344 304.84375 29.480469 305.667969 30.761719 306.253906 C 32.367188 306.988281 34.097656 307.214844 35.863281 307.261719 C 50.699219 307.675781 65.535156 308.128906 80.371094 308.535156 C 103.3125 309.164062 126.238281 310.136719 149.140625 311.664062 C 160.582031 312.425781 171.976562 314.058594 183.484375 313.503906 C 185.796875 313.390625 188.222656 313.644531 190.578125 311.683594 C 189.253906 310.605469 188.070312 310.332031 186.839844 310.25 Z M 457.632812 257.121094 C 465.046875 254.109375 472.148438 250.472656 479.082031 246.488281 C 496.398438 236.542969 513.683594 226.574219 532.148438 218.796875 C 544.015625 213.796875 554.753906 206.578125 566.136719 200.613281 C 568.199219 199.535156 571.371094 198.171875 569.832031 195.097656 C 568.367188 192.175781 565.351562 193.667969 563.132812 194.515625 C 559.527344 195.890625 556 197.511719 552.566406 199.28125 C 526.148438 212.890625 500.648438 228.128906 475.023438 243.140625 C 469 246.671875 463.097656 250.417969 457.21875 254.191406 C 455.871094 255.058594 454.210938 255.941406 453.9375 258.484375 C 455.40625 257.945312 456.535156 257.570312 457.632812 257.121094 Z M 280.902344 160.746094 C 276.261719 141.480469 271.566406 122.222656 266.644531 103.027344 C 262.929688 88.535156 260.496094 73.738281 256.183594 59.394531 C 255.574219 57.363281 255.042969 55.292969 253.726562 53.570312 C 252.914062 52.511719 251.863281 51.84375 250.484375 52.296875 C 249.007812 52.78125 248.835938 54.074219 248.960938 55.355469 C 249.175781 57.585938 249.375 59.835938 249.808594 62.03125 C 253.300781 79.65625 258.300781 96.898438 263.03125 114.214844 C 269.269531 137.046875 275.363281 159.914062 283.253906 182.25 C 283.984375 184.328125 284.601562 186.511719 286.863281 187.984375 C 284.285156 179.039062 283.082031 169.785156 280.902344 160.746094 Z M 408.882812 198.417969 C 413.851562 190.207031 418.335938 181.679688 423.652344 173.707031 C 436.109375 155.03125 449.003906 136.648438 461.601562 118.070312 C 467.136719 109.914062 472.121094 101.417969 475.890625 92.273438 C 476.503906 90.78125 477.15625 88.980469 475.359375 87.894531 C 473.429688 86.722656 472.078125 88.136719 470.925781 89.511719 C 467.476562 93.640625 464.476562 98.074219 461.933594 102.820312 C 455.449219 114.925781 447.941406 126.425781 440.589844 137.988281 C 429.476562 155.46875 419.363281 173.542969 408.253906 191.011719 C 405.75 194.949219 404.484375 199.316406 404.488281 204.269531 C 405.960938 202.324219 407.625 200.496094 408.882812 198.417969 Z M 447.984375 241.171875 C 456.324219 235.027344 464.84375 229.105469 472.9375 222.648438 C 494.714844 205.277344 516.625 188.128906 540.546875 173.71875 C 547.601562 169.46875 554.398438 164.761719 560.558594 159.257812 C 562.460938 157.5625 565.8125 155.582031 563.4375 152.574219 C 561.023438 149.527344 558.449219 152.394531 556.347656 153.910156 C 546.53125 161 536.886719 168.332031 527.007812 175.335938 C 499.578125 194.773438 473.214844 215.546875 448.152344 237.960938 C 446.882812 239.097656 445.375 240.117188 445.027344 242.328125 C 446.457031 242.4375 447.214844 241.738281 447.984375 241.171875 Z M 368.492188 181.167969 C 370.214844 175.179688 371.636719 169.089844 373.667969 163.207031 C 384.851562 130.769531 395.761719 98.25 404.867188 65.152344 C 405.363281 63.355469 405.898438 61.539062 406.109375 59.695312 C 406.300781 58.03125 406.804688 55.789062 404.71875 55.113281 C 402.53125 54.402344 401.824219 56.617188 401.074219 58.109375 C 397.980469 64.257812 395.394531 70.636719 393.566406 77.253906 C 385.257812 107.304688 376.984375 137.367188 368.96875 167.496094 C 367.484375 173.082031 365.9375 178.824219 367.28125 184.945312 C 367.6875 183.6875 368.128906 182.4375 368.492188 181.167969 Z M 478.820312 293.332031 C 492 290.546875 505.070312 287.128906 518.339844 284.90625 C 538.273438 281.566406 558.253906 278.574219 577.894531 273.6875 C 582.28125 272.59375 586.511719 271.179688 590.578125 269.234375 C 591.746094 268.679688 592.949219 268.0625 592.710938 266.539062 C 592.4375 264.820312 590.957031 264.613281 589.558594 264.511719 C 588.820312 264.457031 588.050781 264.488281 587.324219 264.628906 C 580.710938 265.898438 574.0625 267.03125 567.496094 268.53125 C 547.433594 273.121094 527.394531 277.835938 507.359375 282.542969 C 497.285156 284.914062 487.21875 287.320312 477.175781 289.824219 C 474.589844 290.46875 471.9375 291.238281 470.398438 294.417969 C 473.210938 294.066406 476.0625 293.914062 478.820312 293.332031 Z M 178.144531 86.785156 C 178.339844 88.445312 179.304688 89.792969 180.0625 91.222656 C 185.804688 102.082031 193.46875 111.671875 200.246094 121.847656 C 214.847656 143.773438 229.003906 165.996094 244.285156 187.464844 C 247.105469 191.433594 249.988281 195.359375 252.933594 199.234375 C 253.628906 200.148438 254.769531 201.566406 255.929688 200.441406 C 256.863281 199.535156 255.40625 198.503906 254.800781 197.640625 C 240.910156 177.789062 227.585938 157.550781 215.480469 136.578125 C 206.492188 121.003906 197.117188 105.675781 187.789062 90.316406 C 186.636719 88.414062 185.074219 86.75 183.632812 85.035156 C 182.898438 84.15625 181.898438 83.617188 180.722656 83.488281 C 178.933594 83.453125 177.90625 84.726562 178.144531 86.785156 Z M 190.234375 292.230469 C 190.382812 289.925781 187.332031 290.929688 185.792969 290.179688 C 185.367188 289.96875 184.804688 290.058594 184.320312 289.953125 C 164.933594 285.734375 145.378906 282.351562 125.929688 278.46875 C 105.496094 274.394531 85.253906 269.382812 64.914062 264.851562 C 61.511719 264.09375 58.070312 263.355469 54.535156 263.597656 C 53.265625 263.683594 51.941406 263.882812 51.582031 265.386719 C 51.226562 266.871094 52.289062 267.695312 53.355469 268.382812 C 55.921875 270.03125 58.847656 270.71875 61.773438 271.375 C 74.839844 274.300781 88.210938 275.105469 101.414062 277.050781 C 118.457031 279.5625 135.148438 283.914062 151.992188 287.472656 C 163.101562 289.820312 174.277344 291.800781 185.101562 293.34375 C 187.203125 292.90625 190.136719 293.746094 190.234375 292.230469 Z M 198.71875 258.113281 C 183.019531 250.175781 166.945312 242.894531 151.675781 234.203125 C 132.042969 223.035156 111.675781 213.167969 92.558594 201.082031 C 91.40625 200.351562 90.167969 199.683594 88.882812 199.242188 C 86.535156 198.433594 83.570312 196.269531 81.964844 199.546875 C 80.476562 202.585938 83.828125 203.6875 85.808594 204.984375 C 98.167969 213.078125 111.199219 219.875 124.960938 225.296875 C 143.9375 232.777344 161.242188 243.660156 179.628906 252.351562 C 186.820312 255.75 194.253906 258.519531 202.800781 261.238281 C 201.359375 258.917969 199.902344 258.710938 198.71875 258.113281 Z M 198.71875 258.113281 " fill-opacity="1" fill-rule="nonzero"/></g></svg>